HIERARCHY
ROOT Hips
{
	OFFSET 0.00000 0.00000 0.00000
	CHANNELS 6 Xposition Yposition Zposition Zrotation Yrotation Xrotation 
	JOINT LHipJoint
	{
		OFFSET 0 0 0
		CHANNELS 3 Zrotation Yrotation Xrotation
		JOINT LeftUpLeg
		{
			OFFSET 1.75344 -1.53157 0.77399
			CHANNELS 3 Zrotation Yrotation Xrotation
			JOINT LeftLeg
			{
				OFFSET 2.25415 -6.19323 0.00000
				CHANNELS 3 Zrotation Yrotation Xrotation
				JOINT LeftFoot
				{
					OFFSET 2.30342 -6.32861 0.00000
					CHANNELS 3 Zrotation Yrotation Xrotation
					JOINT LeftToeBase
					{
						OFFSET 0.10958 -0.30108 1.49206
						CHANNELS 3 Zrotation Yrotation Xrotation
						End Site
						{
							OFFSET 0.00000 -0.00000 0.77783
						}
					}
				}
			}
		}
	}
	JOINT RHipJoint
	{
		OFFSET 0 0 0
		CHANNELS 3 Zrotation Yrotation Xrotation
		JOINT RightUpLeg
		{
			OFFSET -1.81912 -1.53156 0.77399
			CHANNELS 3 Zrotation Yrotation Xrotation
			JOINT RightLeg
			{
				OFFSET -2.22882 -6.12365 0.00000
				CHANNELS 3 Zrotation Yrotation Xrotation
				JOINT RightFoot
				{
					OFFSET -2.21943 -6.09785 0.00000
					CHANNELS 3 Zrotation Yrotation Xrotation
					JOINT RightToeBase
					{
						OFFSET -0.18931 -0.52012 1.59379
						CHANNELS 3 Zrotation Yrotation Xrotation
						End Site
						{
							OFFSET -0.00000 -0.00000 0.84686
						}
					}
				}
			}
		}
	}
	JOINT LowerBack
	{
		OFFSET 0 0 0
		CHANNELS 3 Zrotation Yrotation Xrotation
		JOINT Spine
		{
			OFFSET -0.00200 1.66634 -0.14248
			CHANNELS 3 Zrotation Yrotation Xrotation
			JOINT Spine1
			{
				OFFSET -0.00875 1.64542 0.09514
				CHANNELS 3 Zrotation Yrotation Xrotation
				JOINT Neck
				{
					OFFSET 0 0 0
					CHANNELS 3 Zrotation Yrotation Xrotation
					JOINT Neck1
					{
						OFFSET 0.02257 1.59605 0.00839
						CHANNELS 3 Zrotation Yrotation Xrotation
						JOINT Head
						{
							OFFSET -0.10214 1.57530 -0.23335
							CHANNELS 3 Zrotation Yrotation Xrotation
							End Site
							{
								OFFSET -0.03588 1.60717 -0.08062
							}
						}
					}
				}
				JOINT LeftShoulder
				{
					OFFSET 0 0 0
					CHANNELS 3 Zrotation Yrotation Xrotation
					JOINT LeftArm
					{
						OFFSET 2.54983 1.10186 0.40078
						CHANNELS 3 Zrotation Yrotation Xrotation
						JOINT LeftForeArm
						{
							OFFSET 4.28840 -0.00000 0.00000
							CHANNELS 3 Zrotation Yrotation Xrotation
							JOINT LeftHand
							{
								OFFSET 3.06552 -0.00000 -0.00000
								CHANNELS 3 Zrotation Yrotation Xrotation
								JOINT LeftFingerBase
								{
									OFFSET 0 0 0
									CHANNELS 3 Zrotation Yrotation Xrotation
									JOINT LeftHandIndex1
									{
										OFFSET 0.75304 -0.00000 0.00000
										CHANNELS 3 Zrotation Yrotation Xrotation
										End Site
										{
											OFFSET 0.60712 -0.00000 0.00000
										}
									}
								}
								JOINT LThumb
								{
									OFFSET 0 0 0
									CHANNELS 3 Zrotation Yrotation Xrotation
									End Site
									{
										OFFSET 0.61639 -0.00000 0.61639
									}
								}
							}
						}
					}
				}
				JOINT RightShoulder
				{
					OFFSET 0 0 0
					CHANNELS 3 Zrotation Yrotation Xrotation
					JOINT RightArm
					{
						OFFSET -2.60909 1.35448 0.21802
						CHANNELS 3 Zrotation Yrotation Xrotation
						JOINT RightForeArm
						{
							OFFSET -4.52172 -0.00000 -0.00000
							CHANNELS 3 Zrotation Yrotation Xrotation
							JOINT RightHand
							{
								OFFSET -2.89140 -0.00000 0.00000
								CHANNELS 3 Zrotation Yrotation Xrotation
								JOINT RightFingerBase
								{
									OFFSET 0 0 0
									CHANNELS 3 Zrotation Yrotation Xrotation
									JOINT RightHandIndex1
									{
										OFFSET -0.68054 -0.00000 0.00000
										CHANNELS 3 Zrotation Yrotation Xrotation
										End Site
										{
											OFFSET -0.54867 -0.00000 0.00000
										}
									}
								}
								JOINT RThumb
								{
									OFFSET 0 0 0
									CHANNELS 3 Zrotation Yrotation Xrotation
									End Site
									{
										OFFSET -0.55705 -0.00000 0.55705
									}
								}
							}
						}
					}
				}
			}
		}
	}
}
MOTION
Frames: 8
Frame Time: .0083333
7.9097 15.0074 42.0652 0 0 0 0 0 0 -21 0 0 0 0 0 0 0 0 0 0 0 0 0 0 21 0 0 0 0 0 0 0 0 0 0 0 0 0 0 0 0 0 0 0 0 0 0 -16 0 0 21 0 0 11 0 0 0 -8 0 0 0 0 0 0 0 0 0 0 0 0 0 0 0 0 0 0 0 0 8 0 0 0 0 0 0 0 0 0 0 0 0 0 0 0 0 0
7.9097 15.0074 42.0652 -179.2330 -20.1339 178.5410 0.0000 0.0000 0.0000 -25.1376 -26.9414 -2.3602 3.2781 11.1322 32.7270 1.9604 -5.4267 -25.3149 3.4987 -11.4616 -33.8529 0.0000 0.0000 0.0000 24.7468 5.1515 -2.3533 -2.5527 -9.9331 28.7604 -1.2571 -21.2003 -37.3746 -0.1577 -2.5590 7.0532 1.5357 2.7587 8.0538 -0.0142 3.8444 -3.7503 -1.4540 1.7745 -8.3822 7.4119 13.5284 -3.6281 -1.3802 17.6114 14.6605 -0.4071 8.7795 5.8228 -0.0000 0.0000 0.0000 -86.4355 11.9054 25.7739 18.7654 -29.1262 -4.9162 -0.0000 -0.0000 14.2188 8.0298 -33.6856 -4.4739 -7.1250 0.0000 -0.0000 -13.4563 -3.1482 14.5739 -0.0000 0.0000 0.0000 85.1573 -18.9865 43.2046 -18.6197 28.9433 -4.8454 0.0000 0.0000 14.6578 -14.9335 -55.1200 12.3414 7.1250 -0.0000 -0.0000 74.8179 -77.3062 -61.9224
7.9093 15.0081 42.0648 -179.2100 -20.1236 178.5520 0.0000 0.0000 0.0000 -25.0989 -26.9294 -2.4078 3.2817 11.1377 32.7457 1.9627 -5.4527 -25.3279 3.6203 -11.6372 -34.4602 0.0000 0.0000 0.0000 24.7702 5.1348 -2.3719 -2.5560 -9.9390 28.7796 -1.2579 -21.1876 -37.3654 -0.1578 -2.5598 7.0555 1.5544 2.7598 8.0083 -0.0196 3.8464 -3.7535 -1.4678 1.7747 -8.3574 7.4015 13.4904 -3.6330 -1.4286 17.5682 14.6008 -0.4256 8.7559 5.8061 -0.0000 0.0000 0.0000 -86.2914 11.8604 26.1426 18.6872 -29.0281 -4.8781 -0.0000 -0.0000 13.6742 7.7447 -33.4571 -4.2879 -7.1250 0.0000 -0.0000 -13.5981 -2.8904 14.6777 -0.0000 0.0000 0.0000 85.1826 -18.9881 43.2110 -18.6381 28.9666 -4.8543 0.0000 0.0000 14.6421 -14.6163 -55.2511 12.0942 7.1250 -0.0000 -0.0000 75.4247 -77.2018 -62.3905
7.9099 15.0059 42.0669 -179.0890 -20.1293 178.5320 0.0000 0.0000 0.0000 -24.9398 -26.9109 -2.4949 3.2871 11.1459 32.7734 1.9573 -5.4562 -25.2911 3.6800 -11.7219 -34.7551 0.0000 0.0000 0.0000 24.9102 5.1800 -2.3720 -2.5486 -9.9258 28.7368 -1.2059 -21.3674 -37.2864 -0.1180 -2.2146 6.0991 1.6539 2.7539 7.9896 0.0137 3.8519 -3.7446 -1.4874 1.7734 -8.3326 7.3035 13.4177 -3.6974 -1.5127 17.4900 14.4746 -0.4446 8.7096 5.7716 -0.0000 -0.0000 0.0000 -86.4259 11.8789 25.6434 18.8310 -29.2081 -4.9481 -0.0000 -0.0000 13.9242 7.1978 -33.3344 -3.9699 -7.1250 0.0000 -0.0000 -13.8906 -2.7034 14.9689 -0.0000 -0.0000 0.0000 85.1617 -18.9437 43.2684 -18.6545 28.9872 -4.8623 0.0000 0.0000 14.5958 -14.2433 -55.3861 11.8001 7.1250 -0.0000 -0.0000 76.0470 -77.0764 -62.8518
7.9104 15.0052 42.0663 -179.1120 -20.1417 178.5340 0.0000 0.0000 0.0000 -24.9712 -26.9443 -2.4798 3.2897 11.1499 32.7872 1.9599 -5.5525 -25.2971 3.6163 -11.6315 -34.4404 0.0000 0.0000 0.0000 24.8982 5.2151 -2.3433 -2.5422 -9.9142 28.6995 -1.1707 -21.4988 -37.2437 -0.0959 -1.9967 5.4966 1.5947 2.7573 7.9590 0.0316 3.8504 -3.7268 -1.4331 1.7773 -8.3006 7.2052 13.3791 -3.7257 -1.5317 17.4492 14.3985 -0.4421 8.6850 5.7430 -0.0000 0.0000 0.0000 -86.2932 11.8310 26.2393 18.7474 -29.1036 -4.9074 -0.0000 -0.0000 13.5058 7.6495 -33.2952 -4.2167 -7.1250 0.0000 -0.0000 -13.6405 -2.7214 14.6874 -0.0000 0.0000 0.0000 85.0965 -18.9133 43.3462 -18.6477 28.9785 -4.8590 0.0000 0.0000 14.5557 -14.4901 -55.3743 12.0057 7.1250 -0.0000 -0.0000 75.9787 -77.1681 -62.8866
7.9113 15.0061 42.0617 -179.2000 -20.1208 178.5640 0.0000 0.0000 0.0000 -25.0769 -26.9528 -2.4199 3.2897 11.1498 32.7869 1.9677 -5.6002 -25.3440 3.5892 -11.5927 -34.3059 0.0000 0.0000 0.0000 24.8232 5.2879 -2.2844 -2.5375 -9.9058 28.6724 -1.1760 -21.5123 -37.2853 -0.1100 -2.1382 5.8877 1.4720 2.7723 7.8961 0.0167 3.8540 -3.7204 -1.3772 1.7861 -8.2638 7.1795 13.3728 -3.7005 -1.5056 17.4403 14.3798 -0.4346 8.6815 5.7278 -0.0000 -0.0000 0.0000 -86.4405 11.8886 25.6997 18.8464 -29.2274 -4.9556 -0.0000 -0.0000 14.2141 7.8042 -33.4986 -4.3258 -7.1250 0.0000 -0.0000 -13.5680 -2.9381 14.6542 -0.0000 -0.0000 0.0000 85.1067 -18.9437 43.2791 -18.6445 28.9746 -4.8575 0.0000 0.0000 14.6776 -14.7582 -55.3011 12.2204 7.1250 -0.0000 -0.0000 75.6380 -77.2613 -62.6607
7.9117 15.0065 42.0590 -179.1940 -20.1066 178.5690 0.0000 0.0000 0.0000 -25.0650 -26.9248 -2.3997 3.2862 11.1446 32.7691 1.9713 -5.5527 -25.3739 3.5421 -11.5247 -34.0707 0.0000 0.0000 0.0000 24.8501 5.3904 -2.2311 -2.5375 -9.9057 28.6719 -1.2015 -21.4820 -37.3844 -0.1315 -2.3375 6.4393 1.4658 2.7689 7.8614 0.0212 3.8480 -3.7325 -1.3665 1.7835 -8.2575 7.1939 13.3835 -3.6257 -1.5208 17.4591 14.3423 -0.4462 8.6914 5.7072 0.0000 -0.0000 0.0000 -86.2997 11.8758 26.1335 18.7481 -29.1045 -4.9077 -0.0000 -0.0000 13.6393 7.7968 -33.3586 -4.3059 -7.1250 0.0000 -0.0000 -13.5634 -2.8015 14.6179 0.0000 -0.0000 0.0000 85.1234 -19.0145 43.2057 -18.6667 29.0024 -4.8682 0.0000 0.0000 14.8080 -14.6466 -55.2133 12.1142 7.1250 -0.0000 -0.0000 75.2554 -77.2088 -62.2356
7.9097 15.0058 42.0594 -179.2230 -20.1197 178.5840 0.0000 0.0000 0.0000 -25.0462 -26.7661 -2.4936 3.2834 11.1403 32.7545 1.9671 -5.6921 -25.3297 3.4819 -11.4370 -33.7683 0.0000 0.0000 0.0000 24.7965 5.3621 -2.2463 -2.5379 -9.9064 28.6743 -1.2245 -21.3876 -37.4027 -0.1289 -2.3138 6.3738 1.4698 2.7487 7.8597 0.0071 3.8201 -3.7498 -1.3801 1.7687 -8.2748 7.2659 13.4077 -3.5748 -1.5780 17.4965 14.3312 -0.4729 8.7099 5.7087 0.0000 0.0000 0.0000 -86.4118 11.8767 25.7213 18.7956 -29.1639 -4.9308 -0.0000 -0.0000 13.8100 7.4626 -33.0781 -4.0892 -7.1250 0.0000 -0.0000 -13.7305 -2.4878 14.7359 0.0000 0.0000 0.0000 85.0962 -19.0365 43.3191 -18.6675 29.0034 -4.8686 0.0000 0.0000 14.7618 -14.5426 -55.1994 12.0250 7.1250 -0.0000 -0.0000 75.2026 -77.1677 -62.1400
